<svg width="1920" height="898" viewBox="0 0 1920 898" fill="none" xmlns="http://www.w3.org/2000/svg">
<mask id="mask0_2_14978" style="mask-type:alpha" maskUnits="userSpaceOnUse" x="0" y="0" width="1920" height="898">
<rect width="1920" height="898" fill="#E3F1E9"/>
</mask>
<g mask="url(#mask0_2_14978)">
<path d="M210.52 169.44C199.799 165.75 186.509 159.178 186.389 146.034C186.321 137.114 191.439 128.886 193.897 120.517C198.624 104.417 192.518 86.783 182.23 74.2052C171.673 61.2798 156.199 52.1545 139.693 49.4096C131.587 48.0487 123.206 48.2835 115.257 50.399C107.276 52.5156 99.6434 56.467 92.5867 60.7078C76.885 70.1791 62.9355 82.8656 51.6811 97.3282C40.6293 111.542 31.6897 128.052 28.3624 145.905C26.8392 154.147 26.4939 162.773 27.968 171.065C29.7535 181.032 34.6559 190.219 41.0835 197.948C54.2408 213.754 73.8892 224.317 93.7865 228.865C113.634 233.365 134.037 228.213 148.428 213.586C155.945 205.946 160.962 196.556 165.832 187.122C168.306 182.348 171.239 177.251 176.657 175.491C181.995 173.75 187.489 175.453 192.429 177.579C196.681 179.435 200.721 181.752 204.972 183.575C205.727 183.908 206.448 183.674 206.912 182.979C208.966 179.789 211.418 176.909 212.697 173.273C213.29 171.538 210.501 170.898 209.908 172.634C208.749 175.974 206.277 178.708 204.393 181.651C205.051 181.452 205.676 181.254 206.334 181.055C198.407 177.664 190.567 171.906 181.598 171.933C170.442 171.981 165.846 180.855 161.377 189.629C156.6 198.962 150.874 207.937 142.882 214.88C135.252 221.503 125.802 225.852 115.787 227.159C95.2748 229.853 73.3173 221.048 57.0381 208.969C48.716 202.79 41.3523 195.155 36.3547 186.035C31.6833 177.505 29.7063 168.144 29.9044 158.438C30.2532 140.615 37.4402 123.464 47.0335 108.698C57.0908 93.2371 70.2992 79.6351 85.282 68.9237C98.6973 59.3471 114.207 50.9831 131.11 51.432C147.948 51.8831 164.354 59.748 176.095 71.6804C187.485 83.2838 195.448 100.745 191.738 117.234C189.849 125.666 185.148 133.281 183.798 141.874C182.343 151.247 186.8 159.671 194.465 165.013C199.133 168.265 204.446 170.395 209.798 172.216C211.631 172.838 212.255 170.033 210.52 169.44Z" fill="#E1D4DB"/>
<path d="M200.642 170.435C194.565 167.682 188.228 165.439 182.409 162.143C179.574 160.549 176.891 158.659 174.584 156.336C172.008 153.698 170.287 150.449 168.55 147.217C163.129 136.978 160.246 125.573 154.155 115.679C142.778 97.2419 121.45 85.7933 100.159 83.8001C88.2716 82.6893 76.2526 84.6269 65.539 89.9881C63.881 90.8182 65.3982 93.2474 67.0406 92.434C86.4118 82.7647 109.969 85.2524 128.525 95.575C138.396 101.074 146.948 108.881 152.631 118.707C158.297 128.485 161.122 139.584 166.533 149.5C169.866 155.612 173.768 160.281 179.777 163.943C185.917 167.666 192.776 170.022 199.296 172.972C200.972 173.728 202.334 171.207 200.642 170.435Z" fill="#E1D4DB"/>
<path d="M168.208 162.158C135.275 157.055 100.153 156.522 69.8746 141.068C61.0876 136.587 53.0865 130.835 46.2263 123.767C44.9543 122.447 42.9956 124.534 44.2675 125.853C69.0624 151.328 105.675 157.059 139.373 161.247C148.786 162.421 158.21 163.481 167.583 164.931C169.373 165.23 170.015 162.441 168.208 162.158Z" fill="#E1D4DB"/>
<path d="M151.802 144.464C131.331 118.997 98.0951 105.791 66.1495 103.279C64.315 103.127 64.4208 105.99 66.2386 106.126C97.0478 108.545 129.608 121.368 149.354 145.935C150.484 147.372 152.932 145.902 151.802 144.464Z" fill="#E1D4DB"/>
<path d="M123.722 138.202C110.451 136.358 98.0453 130.584 86.9044 123.329C85.367 122.325 84.0215 124.862 85.5588 125.865C96.8812 133.228 109.583 139.123 123.081 140.992C124.886 141.242 125.56 138.451 123.722 138.202Z" fill="#E1D4DB"/>
<path d="M157.578 173.815C143.363 178.025 128.736 181.471 113.826 181.072C97.8625 180.625 83.1527 175.232 69.0667 168.038C59.2428 163.024 49.2424 157.027 43.3865 147.385C42.43 145.796 39.9834 147.299 40.9399 148.888C46.0269 157.243 54.0947 163.059 62.4849 167.795C70.2974 172.177 78.5016 176.142 86.9959 179.028C101.367 183.946 116.46 185.02 131.467 182.841C140.606 181.497 149.554 179.221 158.393 176.591C160.158 176.049 159.343 173.306 157.578 173.815Z" fill="#E1D4DB"/>
<path d="M152.962 185.152C142.667 196.653 129.144 204.84 113.896 207.61C96.5544 210.737 78.9578 206.748 64.8321 196.219C56.3098 189.852 49.0517 181.97 41.3266 174.687C39.992 173.434 38.0165 175.505 39.3678 176.774C53.7338 190.322 67.3162 205.742 87.5436 209.972C103.077 213.217 119.336 211.209 133.489 203.989C141.681 199.81 148.93 193.96 155.064 187.125C156.283 185.726 154.198 183.768 152.962 185.152Z" fill="#E1D4DB"/>
<path d="M107.826 193.716C97.6823 193.99 87.4768 191.79 79.4211 185.326C77.9925 184.174 76.0337 186.26 77.4624 187.413C86.1166 194.375 96.9636 196.896 107.9 196.579C109.761 196.536 109.67 193.657 107.826 193.716Z" fill="#E1D4DB"/>
<path d="M133.517 169.692C121.156 169.52 108.99 167.268 96.9995 164.428C95.2049 163.999 94.5636 166.789 96.3582 167.217C108.577 170.115 121.003 172.391 133.59 172.556C135.453 172.578 135.364 169.731 133.517 169.692Z" fill="#E1D4DB"/>
<path d="M70.6229 155.148C64.2815 152.241 58.0226 149.38 53.3221 144.056C52.0972 142.687 50.1384 144.773 51.3633 146.143C56.2317 151.655 62.7545 154.67 69.3097 157.683C70.9527 158.44 72.3149 155.919 70.6229 155.148Z" fill="#E1D4DB"/>
<path d="M66.8914 122.347C60.9515 119.848 55.3168 116.757 49.3612 114.275C47.6712 113.568 46.3257 116.104 48.0157 116.811C53.9556 119.31 59.5903 122.401 65.5459 124.883C67.2515 125.574 68.5981 123.07 66.8914 122.347Z" fill="#E1D4DB"/>
<path d="M179.672 134.2C176.399 120.702 174.074 106.429 165.381 95.1284C156.233 83.243 142.636 74.6246 128.13 71.055C119.693 68.9759 110.934 68.5102 102.294 69.2228C100.453 69.3787 100.542 72.2258 102.383 72.0699C121.909 70.4598 140.289 75.6872 155.185 88.5715C161.942 94.4122 167.071 101.519 170.231 109.887C173.287 118 174.868 126.613 176.928 135.016C177.373 136.815 180.1 135.983 179.672 134.2Z" fill="#E1D4DB"/>
<path d="M180.501 96.0392C176.78 89.4054 173.071 82.6579 168.033 76.8919C162.893 70.9996 156.416 66.834 148.943 64.5299C147.194 63.9866 146.553 66.776 148.302 67.3193C155.546 69.566 161.652 73.7596 166.545 79.5464C171.168 84.9855 174.574 91.3541 178.055 97.5422C178.963 99.1487 181.394 97.6624 180.501 96.0392Z" fill="#E1D4DB"/>
<path d="M223.624 275.069C226.354 266.578 226.107 256.109 223.076 247.737C220.985 241.974 216.2 234.467 208.947 236.075C202.595 237.492 199.952 245.122 200.052 250.9C200.174 257.389 202.041 264.26 205.405 269.836C207.062 272.585 209.3 275.283 212.275 276.694C215.398 278.181 218.692 277.882 221.772 276.44C223.448 275.658 221.931 273.228 220.271 273.994C209.226 279.139 203.832 260.948 203.059 253.346C202.566 248.455 203.273 242.085 208.129 239.42C213.652 236.378 218.372 243.353 219.997 247.673C223.107 255.962 223.55 265.987 220.836 274.462C220.275 276.196 223.064 276.836 223.624 275.069Z" fill="#E1D4DB"/>
<path d="M221.435 274.492C217.935 268.726 216.318 262.057 214.513 255.622C214.02 253.84 211.261 254.673 211.77 256.438C213.646 263.098 215.385 270.005 219.005 275.979C219.944 277.552 222.408 276.064 221.435 274.492Z" fill="#E1D4DB"/>
<path d="M202 282.09C197.593 278.927 193.094 275.896 188.409 273.131C183.064 269.966 177.093 266.496 170.862 265.545C168.665 265.211 166.22 265.208 164.335 266.547C162.26 268.022 161.694 270.631 161.753 273.042C161.839 276.828 162.936 280.809 165.264 283.811C167.93 287.256 171.744 289.58 175.788 291.022C184.45 294.097 196.53 293.567 201.913 285.023C202.901 283.47 200.35 282.142 199.378 283.679C195.182 290.355 185.577 290.758 178.735 288.952C174.964 287.955 171.279 286.129 168.568 283.301C166.124 280.756 164.983 277.424 164.664 273.953C164.564 272.822 164.526 271.625 164.865 270.53C165.07 269.843 165.488 269.231 165.884 268.943C167.134 268.012 169.015 268.114 170.725 268.432C176.278 269.437 181.522 272.444 186.338 275.237C189.175 276.896 191.95 278.653 194.678 280.461C195.737 281.172 196.795 281.883 197.855 282.627C198.302 282.952 198.749 283.246 199.196 283.572C199.594 283.851 199.892 284.068 200.041 284.176C201.531 285.23 203.507 283.159 202 282.09Z" fill="#E1D4DB"/>
<path d="M199.79 283.407C193.62 282.357 187.768 280.099 181.818 278.313C180.053 277.786 179.412 280.575 181.177 281.102C187.127 282.888 192.979 285.147 199.148 286.197C200.956 286.512 201.613 283.705 199.79 283.407Z" fill="#E1D4DB"/>
<path d="M190.6 253.111C189.428 245.7 187.926 237.538 183.075 231.539C180.11 227.877 175.704 224.18 170.948 223.295C168.912 222.923 166.783 223.185 165.209 224.628C163.398 226.289 162.928 228.862 162.807 231.198C162.512 237.296 166.377 242.808 170.788 246.634C175.615 250.82 181.92 254.133 188.395 254.59C190.229 254.71 190.123 251.847 188.306 251.743C183.584 251.424 178.896 249.096 175.088 246.4C170.964 243.471 167.112 239.384 165.933 234.32C165.186 231.138 165.525 225.427 170.03 226.045C173.965 226.567 177.658 229.72 180.225 232.569C185.141 238.064 186.625 246.146 187.736 253.186C188.019 254.991 190.883 254.916 190.6 253.111Z" fill="#E1D4DB"/>
<path d="M188.88 250.932C184.976 247.267 181.497 243.216 177.594 239.552C176.259 238.299 174.284 240.37 175.635 241.638C179.539 245.303 183.017 249.354 186.921 253.018C188.272 254.287 190.231 252.2 188.88 250.932Z" fill="#E1D4DB"/>
<path d="M1682.37 113.265C1708.85 124.94 1746.44 128.314 1769.52 107.657C1770.15 107.097 1770.05 106.112 1769.53 105.505C1763.93 99.0787 1755.17 95.648 1747.35 92.7846C1738.01 89.3511 1728.82 87.1013 1718.81 87.0089C1709.58 86.9202 1701.41 88.7328 1693.18 92.9441C1689.05 95.0438 1685.11 97.5024 1681.24 100.031C1679.52 101.166 1677.78 102.323 1676.07 103.492C1674.87 104.311 1673.24 104.996 1672.5 106.278C1672.06 107.034 1672.38 107.89 1673.05 108.333C1675.98 110.358 1679.29 111.568 1682.37 113.265C1684.08 114.195 1685.62 111.58 1683.89 110.639C1680.8 108.942 1677.49 107.731 1674.58 105.739C1674.76 106.436 1674.95 107.132 1675.13 107.795C1675.63 106.933 1678.06 105.819 1679.03 105.171C1680.64 104.082 1682.27 103.007 1683.89 101.952C1687.38 99.6835 1690.95 97.4849 1694.67 95.6001C1702.62 91.5559 1710.45 89.9404 1719.35 90.0637C1728.64 90.1888 1737.11 92.3088 1745.79 95.4412C1753.34 98.1468 1761.95 101.438 1767.37 107.647C1767.37 106.918 1767.38 106.223 1767.38 105.494C1756.25 115.435 1741.18 119.115 1726.57 119.311C1712.02 119.51 1697.21 116.508 1683.87 110.627C1682.12 109.869 1680.58 112.483 1682.37 113.265Z" fill="#DBDBDB"/>
<path d="M1677.66 108.165C1693.27 105.605 1709.12 104.864 1724.92 105.131C1731.72 105.248 1738.48 105.036 1745.29 104.957C1752.39 104.885 1759.74 105.034 1766.48 107.582C1768.3 108.268 1769.07 105.325 1767.25 104.639C1760.75 102.203 1753.65 101.884 1746.8 101.905C1739.5 101.922 1732.24 102.213 1724.93 102.088C1708.85 101.826 1692.8 102.641 1676.91 105.239C1674.96 105.567 1675.76 108.496 1677.66 108.165Z" fill="#DBDBDB"/>
<path d="M1758.13 107.775C1741.83 111.229 1725.27 115.057 1708.5 113.416C1706.56 113.223 1706.58 116.258 1708.51 116.45C1725.52 118.117 1742.37 114.229 1758.9 110.713C1760.81 110.307 1760.03 107.389 1758.13 107.775Z" fill="#DBDBDB"/>
<path d="M1734.01 95.9274C1724.45 94.8618 1715.07 96.1118 1705.63 97.5542C1703.7 97.8401 1704.5 100.77 1706.41 100.472C1715.63 99.0704 1724.74 97.9124 1734.04 98.9406C1735.97 99.1875 1735.94 96.1411 1734.01 95.9274Z" fill="#DBDBDB"/>
<path d="M1704.05 108.973C1699.97 108.52 1695.94 107.592 1691.81 107.506C1690.98 107.479 1690.3 108.231 1690.3 109.047C1690.3 109.883 1691.01 110.546 1691.84 110.553C1695.97 110.639 1700.01 111.567 1704.09 112.019C1704.91 112.102 1705.6 111.241 1705.6 110.479C1705.57 109.597 1704.86 109.076 1704.05 108.973Z" fill="#DBDBDB"/>
<path d="M1655.69 85.6721C1684.69 84.1475 1719.55 70.1466 1730.89 41.2792C1731.22 40.462 1730.48 39.7 1729.8 39.4198C1721.78 36.1642 1712.2 37.1303 1703.85 38.1384C1694.63 39.2567 1686.04 41.1637 1677.59 45.1663C1669.11 49.1779 1662.35 54.3263 1656.69 61.8459C1653.78 65.7152 1651.25 69.8572 1648.82 74.0598C1647.74 75.93 1646.67 77.8334 1645.62 79.7157C1644.87 81.0517 1643.72 82.4068 1643.64 83.9566C1643.61 84.5525 1644.14 85.3346 1644.78 85.4279C1648.43 85.9629 1652.03 85.5495 1655.69 85.6721C1657.64 85.7355 1657.63 82.7012 1655.67 82.6378C1652.3 82.5105 1648.9 82.958 1645.55 82.5057C1645.93 83.0072 1646.3 83.4755 1646.69 83.977C1646.75 83.002 1648.55 80.7078 1649.14 79.6782C1650.14 77.9009 1651.14 76.1236 1652.18 74.3707C1654.38 70.6004 1656.69 66.8908 1659.33 63.3965C1664.74 56.2099 1671.43 51.4163 1679.53 47.6317C1687.62 43.8682 1695.9 42.1494 1704.71 41.1254C1712.58 40.2084 1721.52 39.3446 1729.04 42.3962C1728.67 41.7654 1728.32 41.1677 1727.95 40.5369C1722.49 54.4177 1710.63 64.4666 1697.68 71.2202C1684.77 77.944 1670.21 81.8937 1655.7 82.65C1653.73 82.7491 1653.75 85.7833 1655.69 85.6721Z" fill="#DBDBDB"/>
<path d="M1648.85 83.4335C1662.02 73.8333 1676.2 65.8272 1690.87 58.7746C1696.92 55.8774 1702.76 52.6089 1708.71 49.5426C1714.69 46.4674 1721.02 43.4572 1727.78 42.7335C1729.69 42.5229 1729.7 39.5008 1727.76 39.6993C1714.49 41.1176 1703.13 49.5765 1691.38 55.1739C1676.01 62.467 1661.11 70.7557 1647.35 80.7986C1645.79 81.9441 1647.29 84.579 1648.85 83.4335Z" fill="#DBDBDB"/>
<path d="M1720.68 46.6762C1707.81 57.0123 1694.84 67.8747 1679.3 73.9178C1677.49 74.6136 1678.26 77.5521 1680.08 76.8352C1696.16 70.596 1709.5 59.5277 1722.82 48.8385C1724.34 47.6146 1722.18 45.4733 1720.68 46.6762Z" fill="#DBDBDB"/>
<path d="M1694.16 46.8071C1685.13 50.1658 1677.32 55.4357 1669.52 60.9886C1667.94 62.122 1669.45 64.7569 1671.03 63.6235C1678.59 58.2411 1686.18 53.0123 1694.95 49.7245C1696.77 49.0408 1695.99 46.1234 1694.16 46.8071Z" fill="#DBDBDB"/>
<path d="M1673.31 71.9482C1669.34 73.4375 1665.21 74.4715 1661.37 76.3166C1660.67 76.6655 1660.4 77.7147 1660.79 78.3909C1661.26 79.1366 1662.11 79.3182 1662.87 78.9726C1663.81 78.5075 1664.54 78.2039 1665.44 77.856C1666.41 77.4903 1667.39 77.1578 1668.37 76.8253C1670.28 76.1901 1672.18 75.6091 1674.07 74.9077C1674.82 74.6373 1675.42 73.8906 1675.14 73.0585C1674.96 72.3081 1674.12 71.6601 1673.31 71.9482Z" fill="#DBDBDB"/>
<path d="M1964.85 -47.9992C1981.98 -22.1862 1995.28 6.39135 2008.5 34.374C2014.25 46.5391 2019.58 58.9836 2023.76 71.8009C2027.62 83.7353 2030.91 96.4976 2030.37 109.124C2030.11 115.139 2029.26 124.177 2022.7 126.786C2017.8 128.733 2011.76 126.758 2006.97 125.368C1998.49 122.884 1984.55 116.676 1978.68 126.89C1975.5 132.443 1976.18 139.248 1977.4 145.29C1979.06 153.452 1981.87 161.333 1984.03 169.327C1986.12 177.088 1988.3 185.91 1986.14 193.889C1983.93 201.979 1975.98 207.453 1967.68 207.516C1958.13 207.571 1949.45 201.033 1942.08 195.675C1935.13 190.595 1928.09 184.577 1919.76 182C1911.24 179.385 1903.79 183.073 1897.57 188.843C1889.35 196.437 1883.34 206.139 1876.6 214.996C1869.83 223.918 1862.66 231.334 1852.43 236.234C1844.55 240.006 1831.39 244.61 1824.48 236.686C1817 228.092 1820.67 213.26 1823.47 203.523C1827.06 191.043 1832.27 179.054 1837.09 167.038C1839.01 162.248 1840.88 157.449 1842.5 152.576C1842.94 151.237 1841.53 150.039 1840.31 150.086C1831.69 150.447 1822.86 149.172 1814.5 147.096C1806.32 145.058 1796.18 141.878 1790.83 134.845C1784.55 126.585 1791.4 116.761 1798.16 111.316C1806.97 104.177 1817.81 99.8352 1827.8 94.6479C1837.96 89.3954 1849.4 82.8773 1853.65 71.5681C1854.06 70.4893 1853.78 69.3459 1852.66 68.7612C1841.28 62.6535 1828.69 58.1646 1818.51 50.0476C1814.65 46.9829 1810.12 42.6264 1810.49 37.2615C1811.01 29.6559 1819.99 24.0976 1825.87 20.8941C1835.97 15.3906 1847.22 12.7497 1858.24 9.82072C1866 7.74065 1878.07 6.68881 1880.52 -2.85237C1881.08 -5.03771 1880.23 -6.12473 1878.93 -7.71344C1876.68 -10.5286 1877.62 -14.2576 1877.68 -17.7256C1877.68 -19.585 1877.28 -22.5412 1878.34 -24.2157C1879.49 -26.1133 1882.89 -26.8136 1884.83 -27.4661C1896.97 -31.6697 1909.58 -34.2096 1921.99 -37.586C1928.87 -39.4794 1935.97 -40.6756 1942.91 -42.411C1950.31 -44.249 1957.67 -46.2636 1965.02 -48.2783C1967.61 -48.9964 1966.29 -52.9559 1963.69 -52.2657C1950.48 -48.6375 1937.22 -45.2603 1923.83 -42.32C1917.46 -40.9291 1911.18 -38.9898 1904.86 -37.4688C1898.55 -35.9479 1892.22 -34.3804 1886.05 -32.2738C1881.54 -30.7545 1875.15 -29.4658 1873.87 -24.0909C1873.23 -21.3662 1873.52 -18.3355 1873.45 -15.5463C1873.4 -12.1248 1872.76 -8.67498 1874.97 -5.79475C1875.37 -5.25586 1876.47 -4.57812 1876.49 -3.94592C1876.61 -1.40786 1872.01 1.71075 1870.16 2.38178C1864.86 4.34812 1858.93 5.36672 1853.45 6.81259C1841.73 9.89092 1829.86 13.1832 1819.54 19.8026C1813.97 23.359 1807.72 28.7104 1806.45 35.5636C1805.49 40.7617 1807.95 45.529 1811.39 49.2821C1821.69 60.5415 1837.63 65.576 1850.77 72.5654C1850.42 71.6267 1850.12 70.6972 1849.78 69.7585C1845.41 81.4304 1832.67 87.522 1822.23 92.7655C1811.57 98.1579 1799.62 103.003 1791.28 111.88C1785.43 118.133 1781.44 127.368 1786.1 135.425C1790.63 143.287 1800.31 147.22 1808.55 149.779C1818.7 152.959 1829.8 154.735 1840.45 154.27C1839.72 153.424 1839.01 152.607 1838.26 151.78C1834.27 163.842 1828.89 175.385 1824.43 187.28C1820.34 198.236 1816 210.01 1815.97 221.845C1815.96 231.533 1819.33 242.064 1829.75 244.575C1839.41 246.909 1850.05 242.502 1858.32 237.818C1868.28 232.213 1875.2 223.755 1881.91 214.675C1888.55 205.679 1894.94 195.037 1904.31 188.614C1912.93 182.694 1921.26 186.359 1929.15 191.651C1937.36 197.176 1944.89 203.919 1953.86 208.244C1962.13 212.235 1971.12 213.082 1979.33 208.482C1986.29 204.599 1990.17 197.809 1990.81 189.961C1992.22 172.527 1982.25 156.768 1980.52 139.774C1980.01 134.912 1980.43 127.455 1986.14 125.814C1991.19 124.378 1997.36 126.91 2002.12 128.366C2012.5 131.546 2026.39 135.494 2031.81 122.678C2035.77 113.294 2034.7 101.794 2032.98 92.0517C2030.63 78.5819 2026.18 65.5417 2021.03 52.939C2016.03 40.6338 2010.24 28.6546 2004.23 16.7779C1996.66 1.71361 1989.56 -13.6208 1981.39 -28.3684C1977.25 -35.8399 1972.85 -43.1437 1968.1 -50.252C1966.82 -52.5845 1963.34 -50.2571 1964.85 -47.9992Z" fill="#DBDBDB"/>
<path d="M1962.65 -52.376C1954.43 -15.5887 1936.69 18.4084 1920.5 52.1345C1912.02 69.7789 1903.8 87.5718 1895.03 105.086C1885.78 123.568 1876.36 141.966 1867.41 160.606C1862.52 170.772 1857.78 181.041 1853.3 191.411C1851.07 196.573 1848.9 201.772 1846.83 206.99C1844.67 212.384 1843.23 217.945 1841.12 223.348C1840.16 225.841 1843.9 227.697 1844.88 225.186C1846.59 220.74 1847.72 216.109 1849.45 211.692C1851.31 206.939 1853.23 202.224 1855.23 197.499C1859.24 188.049 1863.46 178.693 1867.84 169.438C1876.76 150.529 1886.26 131.879 1895.62 113.202C1904.74 95.0088 1913.41 76.6298 1922.18 58.2693C1930.37 41.0993 1938.83 24.0314 1946.52 6.59223C1954.77 -12.1862 1962.24 -31.4567 1966.71 -51.5428C1967.36 -54.1931 1963.24 -54.9891 1962.65 -52.376Z" fill="#DBDBDB"/>
<path d="M1885.35 187.859C1884.37 180.124 1883.59 172.334 1883.02 164.534C1882.35 155.702 1881.74 146.712 1882.46 137.888C1882.62 135.843 1880.35 134.497 1878.82 136.125C1868.67 146.863 1856.91 155.929 1846.95 166.825C1845.13 168.807 1848.3 171.565 1850.12 169.583C1860.09 158.687 1871.84 149.622 1881.99 138.884C1880.78 138.28 1879.55 137.696 1878.36 137.12C1877.61 146.13 1878.12 155.222 1878.81 164.203C1879.39 172.198 1880.18 180.184 1881.18 188.142C1881.5 190.791 1885.68 190.536 1885.35 187.859Z" fill="#DBDBDB"/>
<path d="M1936.41 171.275C1918.32 145.779 1912.9 115.484 1908.13 85.2439C1907.95 84.0726 1906.71 82.7627 1905.38 83.3682C1885.21 92.8597 1864.62 101.375 1844.38 110.709C1841.94 111.818 1843.25 115.824 1845.72 114.696C1865.96 105.363 1886.54 96.8471 1906.72 87.3556C1905.81 86.7149 1904.89 86.1206 1903.97 85.4799C1908.88 116.398 1914.43 147.493 1932.95 173.584C1934.47 175.795 1937.97 173.496 1936.41 171.275Z" fill="#DBDBDB"/>
<path d="M1964.52 110.827C1948.03 87.8959 1940.69 59.6106 1933.67 32.6453C1933.33 31.2975 1931.58 30.8527 1930.53 31.5602C1912.17 43.5884 1890.05 48.1262 1871.7 60.1078C1869.45 61.5694 1871.76 65.0725 1874.03 63.5922C1892.36 51.5827 1914.5 47.0728 1932.85 35.0447C1931.81 34.6923 1930.75 34.312 1929.71 33.9597C1936.85 61.2875 1944.34 89.9166 1961.04 113.155C1962.61 115.329 1966.1 113.001 1964.52 110.827Z" fill="#DBDBDB"/>
<path d="M1984.23 62.0451C1975.3 36.5597 1963.07 12.4718 1953.14 -12.6315C1952.76 -13.626 1951.57 -14.4431 1950.48 -13.9587C1931.46 -5.63963 1909.81 -6.61556 1891.13 2.76312C1888.71 3.97387 1891.07 7.43971 1893.46 6.24757C1911.74 -2.94481 1933.14 -1.80131 1951.8 -9.99922C1950.9 -10.4447 1950.04 -10.8809 1949.14 -11.3264C1959.07 13.7305 1971.29 37.8649 1980.23 63.3503C1981.12 65.897 1985.11 64.5639 1984.23 62.0451Z" fill="#DBDBDB"/>
<path d="M885.317 122.83C874.084 114.331 860.605 106.569 846.304 105.519C832.74 104.514 821.241 111.395 814.694 123.237C808.732 134.014 806.513 146.866 805.645 159.06C804.677 172.692 805.427 186.841 808.971 200.115C811.497 209.507 815.517 219.57 824.643 224.246C832.607 228.342 841.957 227.108 850.135 224.496C860.106 221.324 869.329 215.943 877.931 210.063C886.017 204.574 894.322 198.506 901.039 191.38C909.685 182.214 914.602 170.111 911.391 157.464C907.692 142.893 896.432 132.908 886.179 122.739C884.799 121.375 882.441 123.286 883.83 124.673C892.548 133.305 902.084 141.572 906.822 153.241C910.919 163.297 909.819 173.962 903.864 182.969C898.419 191.16 890.164 197.339 882.358 203.158C874.743 208.811 866.7 214.039 858.086 218.051C850.29 221.696 841.332 224.817 832.579 223.589C823.536 222.304 817.848 215.637 814.545 207.476C809.953 196.195 808.492 183.543 808.311 171.496C808.124 159.023 809.333 146.167 813.251 134.323C817.603 121.133 826.686 109.443 841.436 108.525C856.697 107.566 871.751 116.418 883.533 125.314C885.126 126.503 886.888 124.029 885.317 122.83Z" fill="#D3CBCF"/>
<path d="M886.201 122.729C883.499 120.189 881.036 117.114 880.447 113.361C879.962 110.258 880.89 107.166 882.324 104.436C885.687 98.0609 891.267 93.0232 895.958 87.66C898.405 84.8794 900.77 81.9748 902.352 78.5639C901.394 78.3226 900.415 78.0911 899.435 77.8597C896.365 92.9663 898.556 112.655 883.69 121.924C882.052 122.951 883.979 125.302 885.627 124.298C901.318 114.499 899.21 94.1041 902.453 78.1972C902.818 76.4009 900.204 76.0167 899.527 77.4707C896.473 84.0027 890.459 89.0202 885.845 94.376C881.389 99.5535 876.581 105.96 877.366 113.239C877.858 117.785 880.638 121.629 883.863 124.685C885.277 126.007 887.635 124.096 886.201 122.729Z" fill="#D3CBCF"/>
<path d="M887.766 123.797C896.234 116.37 907.437 110.667 918.944 113.367C918.585 112.564 918.226 111.76 917.867 110.957C914.633 116.017 909.151 119.431 903.664 121.589C898.178 123.748 891.619 124.993 885.913 122.858C884.071 122.182 883.002 125.016 884.844 125.692C891.182 128.053 898.325 126.868 904.481 124.544C910.583 122.218 916.768 118.356 920.328 112.721C920.978 111.681 920.381 110.583 919.251 110.312C907.001 107.435 894.827 113.519 885.819 121.401C884.365 122.72 886.302 125.094 887.766 123.797Z" fill="#D3CBCF"/>
<path d="M884.975 122.662C868.121 115.364 861.721 94.6923 870.062 78.7285C869.198 78.8739 868.334 79.0192 867.482 79.1324C870.29 82.2676 873.415 85.1008 876.202 88.2458C878.854 91.2099 881.63 94.6276 881.954 98.7392C882.115 100.702 885.089 100.229 884.961 98.2787C884.279 89.5077 875.219 83.1968 869.82 77.1769C868.987 76.2641 867.769 76.5677 867.239 77.5808C858.12 95.0704 865.675 117.555 883.918 125.464C885.712 126.268 886.781 123.434 884.975 122.662Z" fill="#D3CBCF"/>
<path d="M840.616 115.719C838.926 117.759 838.397 120.378 837.797 122.895C837.718 123.252 837.915 123.753 838.143 124.026C838.371 124.298 838.774 124.547 839.154 124.564C839.566 124.594 839.982 124.516 840.276 124.223C840.602 123.944 840.724 123.622 840.805 123.21C840.791 123.297 840.701 123.632 840.805 123.21C840.82 123.124 840.856 123.027 840.87 122.94C840.909 122.789 840.938 122.616 840.976 122.465C841.054 122.162 841.121 121.838 841.22 121.526C841.373 120.976 841.525 120.426 841.709 119.888C841.785 119.64 841.892 119.405 841.999 119.17C842.057 119.063 842.106 118.934 842.165 118.828C842.189 118.763 842.213 118.699 842.248 118.657C842.377 118.412 842.06 119.009 842.189 118.763C842.458 118.295 842.746 117.872 843.067 117.461C843.569 116.861 843.363 115.748 842.696 115.324C841.996 114.887 841.142 115.055 840.616 115.719Z" fill="#D3CBCF"/>
<path d="M866.233 130.504C865.894 131.941 865.307 133.301 864.646 134.614C864.599 134.688 864.575 134.753 864.529 134.827C864.634 134.646 864.587 134.72 864.517 134.859C864.434 135.03 864.341 135.179 864.258 135.349C864.082 135.669 863.884 135.998 863.699 136.296C863.303 136.954 862.885 137.623 862.467 138.292C862.049 138.961 862.096 139.957 862.838 140.428C863.483 140.863 864.496 140.812 864.96 140.069C866.61 137.404 868.338 134.677 869.081 131.587C869.184 131.166 869.22 130.829 869.04 130.428C868.89 130.093 868.546 129.738 868.203 129.624C867.494 129.405 866.429 129.694 866.233 130.504Z" fill="#D3CBCF"/>
<path d="M893.918 153.95C893.895 154.255 893.872 154.56 893.849 154.864C893.832 155.006 893.816 155.147 893.777 155.298C893.763 155.385 893.738 155.449 893.724 155.536C893.722 155.59 893.647 155.838 893.712 155.568C893.777 155.298 893.702 155.546 893.7 155.6C893.685 155.687 893.661 155.751 893.647 155.838C893.608 155.989 893.547 156.15 893.509 156.301C893.421 156.581 893.302 156.849 893.183 157.116C893.112 157.255 893.063 157.384 892.993 157.523C892.876 157.736 892.993 157.523 893.029 157.426C892.983 157.5 892.958 157.565 892.912 157.639C892.761 157.894 892.587 158.159 892.413 158.424C892.24 158.689 892.034 158.942 891.851 159.184C891.726 159.321 891.623 159.447 891.498 159.583C891.407 159.677 891.206 159.821 891.52 159.573C891.441 159.635 891.395 159.709 891.316 159.771C891.022 160.063 890.814 160.37 890.787 160.784C890.74 161.154 890.873 161.629 891.133 161.915C891.644 162.463 892.665 162.729 893.276 162.135C894.386 160.996 895.316 159.75 895.993 158.296C896.576 157.045 896.891 155.673 896.946 154.31C896.989 153.514 896.457 152.681 895.601 152.608C894.81 152.561 893.963 153.1 893.918 153.95Z" fill="#D3CBCF"/>
<path d="M845.305 140.047C844.233 142.4 843.146 144.84 843.03 147.489C842.987 148.284 843.519 149.118 844.374 149.19C845.143 149.248 846.013 148.699 846.058 147.849C846.072 147.227 846.172 146.62 846.295 146.003C846.297 145.948 846.321 145.884 846.345 145.819C846.286 146.221 846.307 145.971 846.321 145.884C846.36 145.733 846.398 145.582 846.437 145.43C846.514 145.128 846.624 144.838 846.711 144.558C847.116 143.387 847.628 142.274 848.14 141.162C848.483 140.446 848.002 139.43 847.262 139.199C846.437 138.898 845.673 139.266 845.305 140.047Z" fill="#D3CBCF"/>
<path d="M868.158 156.309C867.623 158.556 866.582 160.681 865.607 162.777C865.273 163.515 865.744 164.509 866.485 164.741C867.3 165.019 868.086 164.641 868.432 163.87C869.385 161.784 870.426 159.659 870.983 157.402C871.087 156.981 871.122 156.644 870.943 156.242C870.793 155.908 870.448 155.553 870.105 155.438C869.73 155.312 869.296 155.291 868.952 155.472C868.62 155.62 868.25 155.92 868.158 156.309Z" fill="#D3CBCF"/>
<path d="M824.756 150.143C823.803 154.129 822.399 157.996 821.447 161.983C821.264 162.761 821.488 163.678 822.325 163.946C823.021 164.197 824.086 163.909 824.272 163.076C825.224 159.09 826.628 155.222 827.581 151.236C827.764 150.458 827.54 149.541 826.703 149.272C826.017 149.044 824.951 149.333 824.756 150.143Z" fill="#D3CBCF"/>
<path d="M847.518 166.794C847.043 168.88 847 171.041 846.526 173.127C846.446 173.484 846.644 173.985 846.872 174.258C847.1 174.53 847.503 174.779 847.882 174.796C848.294 174.826 848.71 174.748 849.004 174.455C849.331 174.176 849.452 173.854 849.534 173.442C850.008 171.356 850.051 169.195 850.526 167.109C850.605 166.752 850.408 166.252 850.18 165.979C849.952 165.706 849.549 165.458 849.169 165.44C848.757 165.41 848.341 165.489 848.047 165.781C847.731 166.083 847.599 166.383 847.518 166.794Z" fill="#D3CBCF"/>
<path d="M878.792 179.8C877.155 182.433 875.74 185.207 873.88 187.699C873.398 188.343 873.573 189.388 874.251 189.835C874.961 190.294 875.867 190.184 876.373 189.475C878.223 186.962 879.648 184.21 881.285 181.577C881.703 180.909 881.656 179.912 880.914 179.441C880.257 179.039 879.244 179.09 878.792 179.8Z" fill="#D3CBCF"/>
<path d="M832.539 178.898C831.898 181.62 830.785 184.179 830.122 186.912C830.018 187.333 829.983 187.67 830.163 188.072C830.312 188.407 830.657 188.761 831 188.876C831.696 189.127 832.762 188.838 832.947 188.005C833.588 185.282 834.701 182.723 835.364 179.991C835.468 179.569 835.503 179.232 835.324 178.831C835.174 178.496 834.83 178.141 834.486 178.027C833.8 177.798 832.735 178.087 832.539 178.898Z" fill="#D3CBCF"/>
<path d="M857.922 188.701C856.733 191.268 855.598 193.836 854.547 196.475C854.267 197.215 854.652 198.195 855.425 198.438C856.207 198.704 857.058 198.351 857.372 197.568C858.4 194.939 859.557 192.361 860.747 189.795C861.08 189.056 860.609 188.062 859.869 187.831C859.054 187.553 858.268 187.931 857.922 188.701Z" fill="#D3CBCF"/>
<path d="M834.086 204.095C833.039 206.384 832.003 208.64 830.945 210.907C830.612 211.645 831.083 212.639 831.823 212.87C832.638 213.149 833.424 212.77 833.77 212C834.828 209.734 835.853 207.455 836.911 205.188C837.245 204.45 836.774 203.456 836.033 203.225C835.241 202.936 834.454 203.315 834.086 204.095Z" fill="#D3CBCF"/>
<path d="M819.55 195.332C819.536 195.954 819.435 196.561 819.313 197.178C819.311 197.233 819.286 197.297 819.262 197.362C819.322 196.96 819.301 197.211 819.286 197.297C819.248 197.448 819.209 197.6 819.17 197.751C819.093 198.053 818.984 198.343 818.897 198.623C818.491 199.795 817.979 200.907 817.468 202.019C817.134 202.757 817.605 203.751 818.346 203.983C819.16 204.261 819.947 203.883 820.293 203.112C821.365 200.759 822.451 198.319 822.568 195.67C822.61 194.874 822.079 194.041 821.223 193.969C820.442 193.943 819.572 194.492 819.55 195.332Z" fill="#D3CBCF"/>
<path d="M856.327 206.04C856.131 206.85 855.85 207.645 855.44 208.391C855.498 208.284 855.547 208.155 855.628 208.039C855.135 208.955 854.503 209.8 853.82 210.587C853.592 210.85 853.496 211.348 853.547 211.7C853.608 212.074 853.852 212.5 854.159 212.711C854.488 212.912 854.873 213.062 855.267 212.993C855.683 212.914 855.985 212.698 856.269 212.384C857.569 210.839 858.659 209.12 859.13 207.143C859.233 206.722 859.269 206.385 859.089 205.983C858.939 205.648 858.595 205.294 858.252 205.179C857.877 205.052 857.443 205.032 857.099 205.213C856.789 205.351 856.418 205.651 856.327 206.04Z" fill="#D3CBCF"/>
<path d="M899.309 171.593C898.12 174.159 896.632 176.591 895.934 179.366C895.83 179.787 895.795 180.124 895.975 180.526C896.124 180.86 896.469 181.215 896.812 181.33C897.508 181.581 898.574 181.292 898.759 180.459C899.424 177.672 900.945 175.252 902.134 172.686C902.477 171.97 901.996 170.953 901.256 170.722C900.431 170.422 899.677 170.812 899.309 171.593Z" fill="#D3CBCF"/>
<path d="M822.227 129.4C821.113 131.183 820.229 133.185 819.722 135.259C819.618 135.68 819.583 136.017 819.762 136.418C819.912 136.753 820.256 137.108 820.6 137.222C820.975 137.349 821.409 137.369 821.753 137.189C822.075 137.018 822.445 136.718 822.547 136.352C822.938 134.731 823.575 133.188 824.361 131.739C824.302 131.846 824.254 131.974 824.173 132.091C824.327 131.781 824.49 131.494 824.676 131.197C824.896 130.857 824.998 130.491 824.949 130.084C824.888 129.71 824.644 129.284 824.337 129.073C823.692 128.638 822.679 128.689 822.227 129.4Z" fill="#D3CBCF"/>
<path d="M885.576 121.51C887.239 116.857 888.819 112.135 890.9 107.644C891.234 106.906 890.751 105.944 890.022 105.681C889.22 105.37 888.409 105.813 888.075 106.551C886.004 111.064 884.437 115.754 882.761 120.439C882.491 121.202 882.868 122.104 883.639 122.402C884.399 122.678 885.316 122.295 885.576 121.51Z" fill="#D3CBCF"/>
<path d="M1738.81 887.129C1760.25 866.399 1782.17 843.996 1794.1 816.197C1799.9 802.667 1801.75 788.532 1802.43 773.945C1803.12 758.813 1802.11 742.347 1807.82 728.065C1811.02 720.074 1815.95 712.912 1821.74 706.565C1824.69 703.308 1827.85 700.283 1831.19 697.414C1832.9 695.934 1834.67 694.519 1836.44 693.13C1837.81 692.065 1839.39 690.131 1841 689.572C1843.2 688.792 1842.05 685.37 1839.85 686.15C1837.25 687.061 1836.02 688.812 1833.95 690.5C1831.04 692.902 1828.08 695.252 1825.31 697.822C1819.78 702.937 1814.77 708.634 1810.63 714.927C1806.7 720.935 1803.67 727.551 1801.96 734.567C1800.18 741.843 1799.86 749.519 1799.49 756.975C1798.74 772.626 1799.12 788.652 1794.77 803.84C1790.33 819.274 1781.62 833.391 1771.89 846.03C1761.16 859.954 1748.74 872.518 1736.12 884.72C1734.43 886.342 1737.15 888.764 1738.81 887.129Z" fill="#DCD3D7"/>
<path d="M1783.89 824.519C1767.87 831.24 1749.34 816.348 1739.88 804.741C1734.98 798.743 1730.16 791.227 1729.77 783.293C1729.61 780.298 1730.29 777.302 1732.19 774.914C1734.4 772.163 1738.9 769.578 1742.46 769.794C1746.7 770.062 1747.31 775.741 1747.8 778.995C1748.46 783.338 1748.71 787.901 1750.26 792.036C1753.44 800.551 1764.41 805.233 1772.78 801.568C1781.04 797.942 1783.91 787.423 1780.6 779.491C1777.01 770.873 1769.07 764.333 1762.2 758.35C1755.56 752.587 1746.07 746.374 1743.3 737.612C1741.29 731.169 1742.61 724.283 1745.67 718.393C1746.21 717.368 1748.16 712.737 1749.76 712.723C1749.85 712.735 1750.92 714.757 1751.18 715.34C1754.35 722.909 1754.75 732.335 1760.32 738.734C1765.54 744.732 1775.43 746.615 1779.81 738.921C1784.27 731.072 1782.12 722.296 1779.3 714.416C1777.58 709.607 1775.35 703.736 1777.84 698.793C1779.3 695.926 1785.33 690.383 1789.09 692.545C1793 694.784 1791.34 702.085 1794.38 705.246C1799.81 710.932 1808.38 699.396 1809.35 694.961C1810.51 689.514 1808.82 683.784 1807.23 678.587C1805.37 672.546 1803.36 666.429 1802.72 660.089C1802.02 653.23 1803.68 646.901 1808.1 641.529C1811.79 637.051 1817.05 634.167 1822.47 632.204C1827.56 630.331 1833.92 628.807 1839.17 630.967C1843.93 632.946 1845.48 637.119 1843.44 641.608C1840.64 647.821 1832.25 654.975 1834.95 662.505C1836.2 665.979 1839.99 668.801 1843.64 669.096C1847.66 669.416 1851.55 667.337 1854.94 665.466C1859.43 662.972 1863.7 659.92 1868.54 658.152C1873.77 656.253 1878.79 657.558 1883.59 660.107C1893.28 665.257 1900.54 676.802 1893.85 687.169C1887.48 697.043 1875 695.786 1864.96 698.428C1854.74 701.11 1837.75 715.248 1851.94 724.193C1857.35 727.597 1863.78 729.341 1869.76 731.448C1875.43 733.426 1882.26 735.467 1886.58 739.884C1890.34 743.731 1889.38 750.41 1884.6 753.112C1879.36 756.074 1871.76 753.488 1866.49 751.899C1853.92 748.165 1836.36 739.198 1823.73 747.121C1815.52 752.264 1813.08 762.899 1815.74 771.83C1818.76 781.979 1828.9 789.619 1839.45 785.225C1844.35 783.197 1848.53 779.575 1853.69 778.195C1858.51 776.906 1864.98 778.183 1868.78 781.563C1874.73 786.795 1869.61 794.995 1865.04 799.162C1858.55 805.095 1850.02 807.386 1841.52 805.165C1835.11 803.46 1824.26 798.544 1818.99 805.085C1813.08 812.404 1820.23 819.074 1824.9 824.281C1828.03 827.779 1828.78 831.486 1825.16 835.095C1821.99 838.275 1817.09 838.293 1812.93 837.584C1804.84 836.18 1796.46 832.104 1790.02 826.989C1788.22 825.539 1785.77 828.239 1787.6 829.702C1794.29 835.037 1802.75 839.216 1811.15 840.97C1819.02 842.622 1829.51 840.821 1831.24 831.354C1832.87 822.548 1821.14 819.786 1820.49 811.981C1819.49 800.313 1837.46 808.06 1842.78 809.222C1850.92 811.041 1859.48 808.309 1865.89 803.181C1871.17 798.974 1876.48 791.941 1874.77 784.773C1872.8 776.606 1861.79 773.065 1854.39 774.369C1849.06 775.309 1844.76 778.607 1840.03 781.01C1833.87 784.129 1827.35 783.28 1822.77 777.761C1815.94 769.47 1816.51 754.442 1827.05 749.426C1833.89 746.19 1842.34 748.359 1849.25 750.31C1857 752.519 1864.56 755.635 1872.5 757.222C1878.13 758.344 1884.89 758.7 1889.09 754.054C1892.89 749.861 1893.79 743.377 1890.29 738.752C1886.51 733.764 1879.83 731.347 1874.2 729.252C1867.78 726.899 1860.98 725.13 1854.96 721.843C1850.05 719.138 1848.26 715.691 1852.12 711.006C1855.16 707.308 1859.16 704.153 1863.7 702.592C1868.84 700.81 1874.32 700.532 1879.64 699.489C1889.88 697.494 1899.38 690.859 1900.05 679.603C1900.68 669.489 1892.99 660.771 1884.38 656.488C1880.02 654.315 1875.02 652.829 1870.14 653.897C1865.3 654.953 1860.95 657.706 1856.76 660.187C1853.08 662.369 1847.7 666.459 1843.11 665.401C1838.26 664.317 1837.25 659.767 1839.08 655.849C1842.07 649.376 1850.63 642.015 1847.38 634.148C1843.05 623.637 1828.67 625.87 1820.39 629.094C1809.73 633.241 1800.43 641.303 1799.04 653.272C1798.36 659.277 1799.64 665.291 1801.2 671.086C1802.89 677.334 1805.67 683.671 1805.99 690.18C1806.17 693.408 1805.49 696.598 1803.28 699.09C1802.32 700.168 1799.52 703.049 1797.81 702.973C1795.97 702.897 1795.76 699.98 1795.41 698.476C1794.14 693.149 1792.06 687.29 1785.3 688.879C1780.63 689.986 1776.06 693.44 1774.16 697.902C1772.2 702.43 1773.16 707.472 1774.56 712.022C1776.04 716.805 1778.48 721.418 1778.66 726.462C1778.81 730.391 1778.31 735.422 1775.61 738.511C1772.19 742.443 1765.95 739.662 1763.03 736.424C1760.07 733.172 1758.87 728.233 1757.66 724.137C1756.62 720.638 1754.33 706.287 1747.83 709.561C1743.63 711.679 1741.14 718.631 1739.89 722.769C1738.23 728.19 1738.14 734.103 1740.06 739.495C1743.16 748.192 1752.05 754.367 1758.76 760.169C1765.81 766.269 1775.44 773.494 1777.92 782.982C1779.17 787.817 1777.48 793.77 1773.47 796.861C1768.67 800.587 1761.72 799.363 1757.25 795.711C1749.85 789.664 1753.25 778.405 1749.19 770.591C1745.28 763.01 1735.27 766.509 1730.39 771.298C1725.56 776.049 1725.32 783.051 1727.07 789.234C1731.68 805.579 1747.36 820.513 1762.8 826.772C1769.81 829.617 1777.78 830.866 1784.95 827.863C1787.21 827.044 1786.06 823.622 1783.89 824.519Z" fill="#DCD3D7"/>
<path d="M-176.334 980.504C-130.248 969.95 -85.5343 951.216 -53.5885 914.987C-13.6462 869.696 2.73283 810.111 28.5722 756.779C35.8539 741.724 44.1997 727.398 53.3561 713.407C59.5236 703.968 67.383 691.405 78.558 687.541C77.6295 686.896 76.701 686.25 75.8127 685.586C75.5663 691.022 71.771 695.41 68.3189 699.323C64.9289 703.158 61.4945 706.843 58.4312 710.967C50.943 721.088 44.6186 732.21 39.031 743.504C31.0814 759.551 23.8817 776.546 19.0492 793.815C16.5876 802.617 14.534 811.939 15.6159 821.083C15.7469 822.17 16.8732 822.822 17.8986 822.666C29.6398 821.055 41.1757 817.928 52.6644 815.017C66.4011 811.533 80.0751 807.858 93.9005 804.675C99.5903 803.367 105.288 802.129 111.063 801.221C114.747 800.644 118.884 799.833 122.626 800.449C123.345 800.581 124.375 800.863 124.471 800.965C124.595 801.078 124.518 800.748 124.445 801.123C124.423 801.182 124.061 802.521 123.944 802.746C123.105 804.11 118.364 805.468 116.204 806.075C101.125 810.3 85.4319 812.49 70.1151 815.556C59.6245 817.664 49.1782 819.922 38.7803 822.5C33.3067 823.854 27.8591 825.319 22.4484 826.864C20.8779 827.321 18.8087 827.592 17.4408 828.492C15.8792 829.555 14.4996 831.656 13.3201 833.129C1.83388 847.195 -6.15387 864.065 -14.5175 880.059C-23.8363 897.909 -34.3299 914.789 -48.2912 929.411C-64.6751 946.519 -84.1222 960.549 -105.587 970.481C-126.599 980.179 -148.96 986.496 -170.65 994.335C-169.799 994.65 -168.919 994.977 -168.068 995.292C-170.835 990.514 -173.326 984.902 -172.655 979.221C-172.361 976.717 -176.271 976.374 -176.565 978.877C-177.267 985.183 -174.723 991.552 -171.64 996.916C-171.069 997.898 -170.142 998.275 -169.058 997.873C-148.913 990.6 -128.258 984.656 -108.603 976.096C-88.666 967.407 -70.5028 955.581 -54.4682 940.856C-38.8136 926.526 -26.0305 909.591 -15.9114 890.931C-6.86078 874.254 1.10719 856.807 12.051 841.234C14.3618 837.97 17.2101 832.895 20.9979 831.318C26.3118 829.134 32.4676 828.099 38.0325 826.678C48.8513 823.955 59.7773 821.573 70.7257 819.4C86.621 816.214 103.072 814.138 118.605 809.41C121.427 808.546 125.832 807.466 127.337 804.573C128.26 802.805 128.905 800.163 127.38 798.426C125.58 796.352 122.103 796.369 119.616 796.419C114.839 796.524 110.097 797.346 105.432 798.23C78.1806 803.337 51.7782 812.277 24.5607 817.565C22.1183 818.033 19.6575 818.461 17.1892 818.819C17.9635 819.34 18.6976 819.88 19.4719 820.402C18.4944 811.966 20.4579 803.248 22.7162 795.174C25.2904 785.979 28.6675 777.047 32.2977 768.243C40.323 748.841 49.4222 729.602 62.015 712.73C68.0467 704.649 79.2189 696.831 79.7116 685.959C79.7956 684.382 78.3499 683.512 76.9664 684.004C67.5448 687.278 60.5525 696.511 54.9267 704.308C47.2017 714.978 40.2551 726.338 33.9355 737.898C19.5497 764.288 8.68141 792.351 -3.12218 819.966C-15.2062 848.248 -28.6184 875.703 -46.8916 900.519C-61.2909 920.104 -79.7652 936.37 -100.811 948.501C-124.443 962.119 -150.542 970.601 -177.014 976.668C-179.449 977.206 -178.809 981.061 -176.334 980.504Z" fill="#D7D7D7"/>
<path d="M39.3462 815.843C38.6075 800.461 46.6082 785.807 56.7135 774.746C67.1477 763.338 81.3054 753.947 96.7149 751.351C104.903 749.964 112.907 751.055 120.55 754.29C130.349 758.458 139.046 763.892 150.106 762.498C159.972 761.264 169.264 757.439 178.96 755.405C186.371 753.864 194.116 753.854 201.484 755.58C214.981 758.773 226.853 768.064 230.708 781.787C235.278 798.085 229.47 816.635 214.497 825.255C207.627 829.207 199.851 831.282 192.099 832.663C184.098 834.086 175.767 834.147 168.125 837.21C153.907 842.894 147.935 857.028 136.788 866.396C121.134 879.554 96.6677 878.86 78.5743 871.953C68.985 868.298 59.5546 862.324 53.8943 853.56C48.2708 844.877 46.4343 834.348 41.4658 825.338C40.2439 823.143 36.6724 824.767 37.9236 826.972C42.5388 835.316 44.4789 844.845 49.1453 853.14C53.8484 861.515 61.2021 867.691 69.5955 872.142C86.2466 880.96 106.955 883.242 124.924 877.341C133.047 874.69 139.673 869.776 145.328 863.431C150.53 857.588 154.832 850.841 160.974 845.882C168.634 839.71 177.453 838.691 186.836 837.412C195.204 836.259 203.64 834.563 211.413 831.146C227.632 824.026 236.434 809.099 236.03 791.464C235.677 776.393 227.504 763.247 214.268 756.197C199.223 748.176 183.262 749.831 167.469 754.361C161.948 755.933 156.395 757.593 150.711 758.434C144.042 759.413 138.13 757.992 132.034 755.263C122.894 751.206 114.314 746.719 104.052 746.768C88.1455 746.835 72.8997 754.751 61.0888 765.012C49.1244 775.417 39.1842 789.453 36.1944 805.261C35.4821 808.984 35.3047 812.703 35.4827 816.454C35.6212 819.051 39.4881 818.34 39.3462 815.843Z" fill="#D7D7D7"/>
<path d="M60.3095 813.027C65.2655 793.894 82.8125 780.399 97.0802 768.101C98.9884 766.464 96.5187 763.404 94.5996 765.071C79.8531 777.762 61.78 791.865 56.6425 811.668C56.0149 814.081 59.6709 815.47 60.3095 813.027Z" fill="#D7D7D7"/>
<path d="M65.5123 820.684C81.4327 833.184 103.003 846.103 123.811 838.574C126.198 837.716 124.547 834.157 122.19 835.025C102.887 842.006 82.4295 828.964 67.7903 817.508C65.8044 815.935 63.5264 819.11 65.5123 820.684Z" fill="#D7D7D7"/>
<path d="M125.773 802.854C153.203 794.832 183.217 800.094 209.515 787.565C211.791 786.466 210.17 782.917 207.894 784.016C181.948 796.408 152.183 791.104 125.093 799.018C122.713 799.677 123.342 803.561 125.773 802.854Z" fill="#D7D7D7"/>
<path d="M127.683 805.171C139.147 806.74 149.31 812.717 160.039 816.627C170.739 820.526 181.594 821.668 192.353 817.215C194.684 816.236 193.063 812.688 190.732 813.666C168.54 822.86 149.336 804.185 128.025 801.278C125.522 800.919 125.199 804.853 127.683 805.171Z" fill="#D7D7D7"/>
<path d="M128.468 798.461C132.27 782.082 150.762 777.111 164.976 773.871C167.421 773.304 166.781 769.449 164.306 770.005C148.775 773.561 128.929 779.303 124.802 797.102C124.232 799.537 127.889 800.926 128.468 798.461Z" fill="#D7D7D7"/>
<path d="M118.786 771.021C111.083 778.483 106.469 787.961 101.367 797.225C100.849 798.172 100.87 799.285 101.817 799.971C102.58 800.522 104.038 800.46 104.556 799.513C109.468 790.581 113.87 781.225 121.278 774.022C123.08 772.311 120.599 769.281 118.786 771.021Z" fill="#D7D7D7"/>
<path d="M101.456 815.348C110.467 823.444 122.231 827.804 133.276 832.3C135.591 833.259 136.955 829.577 134.641 828.619C123.888 824.232 112.535 820.024 103.745 812.143C101.861 810.473 99.6018 813.689 101.456 815.348Z" fill="#D7D7D7"/>
<path d="M67.2346 820.719C65.5453 827.797 66.4444 835.634 68.3743 842.58C70.3118 849.596 73.7167 857.423 80.3097 861.24C82.4853 862.482 84.7633 859.307 82.5986 858.035C76.7724 854.67 73.7836 847.7 72.1266 841.458C70.503 835.397 69.4299 828.299 70.9125 822.049C71.4705 819.643 67.8145 818.254 67.2346 820.719Z" fill="#D7D7D7"/>
<path d="M94.8769 838.769C94.9266 848.268 97.4132 859.473 105.901 864.93C108.003 866.279 110.311 863.114 108.19 861.725C100.884 857.041 98.8147 847.23 98.7684 839.073C98.7657 838 98.1148 837.055 96.9898 836.94C96.0006 836.908 94.8633 837.726 94.8769 838.769Z" fill="#D7D7D7"/>
<path d="M18.6285 772.355C12.6911 767.039 9.69557 758.827 7.7056 751.323C5.67879 743.738 4.46794 735.752 4.34182 727.901C4.17887 719.968 4.81071 711.962 6.0511 704.114C7.24441 696.483 9.08517 688.456 13.4099 681.919C17.107 676.355 21.5606 672.981 28.2635 672.451C34.5196 671.956 40.8998 672.746 47.0282 671.065C58.6664 667.842 64.3147 657.373 68.9267 647.091C74.5696 634.477 80.2159 621.763 94.2753 616.958C107.863 612.347 123.31 614.421 135.484 621.814C147.269 628.996 156.904 641.98 157.186 656.254C157.416 667.695 148.847 674.97 140.985 681.871C132.172 689.625 124.368 698.256 124.799 710.777C125.081 718.117 127.824 724.761 130.424 731.52C131.442 734.175 132.64 737.332 131.523 740.168C129.855 744.306 124.567 746.601 120.883 748.35C118.618 749.42 120.228 752.998 122.504 751.899C128.08 749.276 135.35 745.505 135.878 738.499C136.299 732.592 132.467 726.817 130.753 721.358C128.6 714.564 127.673 707.253 130.441 700.507C132.614 695.183 136.74 690.984 140.921 687.174C148.977 679.842 158.646 672.84 160.694 661.373C163.096 647.96 155.44 633.599 145.899 624.77C135.324 614.955 120.675 609.827 106.287 610.657C91.2538 611.517 79.0943 618.668 71.7568 631.893C65.6957 642.845 62.5416 658.827 50.7615 665.314C39.2447 671.63 24.5427 664.305 14.5043 674.285C8.43442 680.31 5.39227 688.427 3.52627 696.613C1.3089 706.376 0.385723 716.519 0.447678 726.524C0.506922 735.457 1.77166 744.467 4.18937 753.068C6.49998 761.327 9.87691 769.68 16.3723 775.471C18.2232 777.229 20.4828 774.013 18.6285 772.355Z" fill="#D7D7D7"/>
<path d="M117.297 645.59C118.155 679.372 92.7506 713.436 57.9242 715.937C55.4224 716.115 56.0916 719.981 58.5934 719.803C94.9985 717.184 122.12 681.277 121.188 645.893C121.134 643.428 117.235 643.054 117.297 645.59Z" fill="#D7D7D7"/>
<path d="M97.1792 643.962C92.6367 658.558 85.3852 672.452 76.1729 684.614C74.6576 686.632 77.8177 688.908 79.3623 686.902C88.8011 674.489 96.2532 660.234 100.886 645.303C101.573 642.911 97.9058 641.551 97.1792 643.962Z" fill="#D7D7D7"/>
<path d="M44.2591 679.887C41.6686 685.526 41.2196 691.958 41.6234 698.071C42.0047 703.974 43.3282 710.125 46.2098 715.314C47.4317 717.508 50.9738 715.873 49.752 713.679C47.0948 708.875 45.9194 703.314 45.5026 697.867C45.0708 692.28 45.5798 686.406 47.9261 681.246C48.9863 678.926 45.3084 677.596 44.2591 679.887Z" fill="#D7D7D7"/>
<path d="M18.5951 693.856C17.2967 703.391 17.2557 713.224 18.6316 722.745C19.9332 731.836 22.6211 741.508 29.0203 748.369C30.7395 750.212 33.7665 747.716 32.0473 745.873C25.9347 739.32 23.5886 730.076 22.4016 721.395C21.1662 712.395 21.2857 703.161 22.4866 694.16C22.8393 691.677 18.9295 691.334 18.5951 693.856Z" fill="#D7D7D7"/>
<path d="M107.002 726.926C98.7424 734.718 87.9767 739.638 77.0071 742.138C66.7368 744.461 55.418 745.023 45.5127 741.05C43.1877 740.121 41.8232 743.803 44.1482 744.732C54.6879 748.973 66.7764 748.496 77.7057 746.014C89.3234 743.386 100.751 738.209 109.512 729.966C111.314 728.256 108.844 725.197 107.002 726.926Z" fill="#D7D7D7"/>
<path d="M83.6308 724.628C77.022 729.046 73.3099 735.91 69.7848 742.811C69.2963 743.769 70.0467 744.985 70.9268 745.311C72.0122 745.713 72.9742 745.098 73.4224 744.159C76.6597 737.855 80.0804 731.687 86.0821 727.647C86.9635 727.069 86.9928 725.64 86.3754 724.875C85.6625 724.008 84.5232 724.021 83.6308 724.628Z" fill="#D7D7D7"/>
<path d="M97.3144 671.145C97.3109 679.886 96.4539 688.68 97.3919 697.402C97.662 699.914 101.518 699.233 101.248 696.721C100.358 688.318 101.213 679.892 101.206 671.448C101.203 670.375 100.552 669.431 99.4273 669.315C98.449 669.254 97.3117 670.072 97.3144 671.145Z" fill="#D7D7D7"/>
<path d="M76.4203 650.639C78.3175 659.114 80.2147 667.588 82.1118 676.063C82.6712 678.515 86.5163 677.863 85.9678 675.382C84.0706 666.907 82.1735 658.432 80.2763 649.958C79.7462 647.517 75.8718 648.158 76.4203 650.639Z" fill="#D7D7D7"/>
</g>
</svg>
