<svg width="1920" height="296" viewBox="0 0 1920 296" fill="none" xmlns="http://www.w3.org/2000/svg">
<mask id="mask0_2_10038" style="mask-type:alpha" maskUnits="userSpaceOnUse" x="0" y="0" width="1920" height="296">
<rect width="1920" height="296" fill="#E3F1E9"/>
</mask>
<g mask="url(#mask0_2_10038)">
<path d="M717.647 114.194C709.45 110.078 698.774 108.674 689.788 110.43C683.601 111.644 675.217 115.32 675.705 122.943C676.14 129.621 683.476 133.513 689.362 134.325C695.975 135.227 703.252 134.416 709.45 131.879C712.505 130.63 715.6 128.782 717.504 125.982C719.509 123.044 719.725 119.65 718.747 116.292C718.217 114.466 715.509 115.623 716.024 117.431C719.506 129.466 700.17 132.073 692.323 131.656C687.276 131.384 680.915 129.658 678.975 124.304C676.757 118.21 684.589 114.517 689.236 113.549C698.15 111.699 708.407 112.833 716.589 116.931C718.262 117.775 719.353 115.042 717.647 114.194Z" fill="#DDDDDD"/>
<path d="M716.714 116.324C710.302 118.969 703.27 119.558 696.446 120.374C694.557 120.594 694.967 123.529 696.841 123.291C703.905 122.437 711.199 121.763 717.84 119.029C719.587 118.322 718.465 115.584 716.714 116.324Z" fill="#DDDDDD"/>
<path d="M721.362 137.273C717.451 141.25 713.661 145.343 710.11 149.666C706.049 154.598 701.58 160.116 699.629 166.297C698.942 168.476 698.552 170.96 699.615 173.087C700.786 175.429 703.347 176.417 705.806 176.737C709.667 177.248 713.885 176.764 717.304 174.872C721.226 172.708 724.19 169.2 726.294 165.318C730.789 157.003 732.159 144.645 724.329 137.824C722.906 136.575 721.154 138.958 722.562 140.188C728.682 145.507 727.574 155.331 724.657 161.997C723.048 165.672 720.611 169.127 717.308 171.435C714.335 173.516 710.77 174.148 707.192 173.924C706.028 173.847 704.805 173.696 703.746 173.179C703.08 172.862 702.524 172.34 702.294 171.893C701.546 170.475 701.947 168.58 702.541 166.892C704.44 161.409 708.323 156.556 711.923 152.104C714.057 149.484 716.281 146.941 718.549 144.455C719.439 143.492 720.329 142.528 721.252 141.569C721.654 141.166 722.022 140.759 722.424 140.356C722.77 139.996 723.038 139.727 723.172 139.593C724.478 138.245 722.686 135.911 721.362 137.273Z" fill="#DDDDDD"/>
<path d="M722.352 139.729C720.31 145.833 717.09 151.421 714.335 157.185C713.52 158.895 716.253 159.988 717.068 158.277C719.823 152.514 723.043 146.925 725.085 140.822C725.69 139.035 722.943 137.924 722.352 139.729Z" fill="#DDDDDD"/>
<path d="M690.116 144.276C682.4 144.295 673.869 144.531 667.007 148.513C662.817 150.946 658.364 154.839 656.713 159.532C656.013 161.542 655.943 163.747 657.16 165.574C658.561 167.676 661.102 168.56 663.456 169.053C669.606 170.316 675.817 167.261 680.403 163.384C685.419 159.141 689.782 153.257 691.27 146.75C691.681 144.906 688.756 144.561 688.363 146.391C687.292 151.138 684.186 155.534 680.844 158.977C677.216 162.705 672.454 165.973 667.123 166.37C663.771 166.626 658.022 165.379 659.362 160.899C660.514 156.984 664.302 153.729 667.603 151.571C673.963 147.444 682.409 147.214 689.739 147.198C691.618 147.196 691.994 144.274 690.116 144.276Z" fill="#DDDDDD"/>
<path d="M687.628 145.683C683.287 149.071 678.621 151.965 674.28 155.353C672.796 156.511 674.588 158.845 676.091 157.673C680.432 154.285 685.098 151.391 689.438 148.003C690.941 146.831 689.13 144.511 687.628 145.683Z" fill="#DDDDDD"/>
<path d="M1176.93 155.742C1188.56 173.588 1211.81 190.267 1237.71 185.615C1238.42 185.492 1238.85 184.806 1238.82 184.208C1238.38 177.842 1234.32 172.223 1230.58 167.335C1226.13 161.487 1221.17 156.476 1214.57 152.562C1208.48 148.951 1202.13 146.995 1194.5 146.585C1190.68 146.372 1186.81 146.465 1182.94 146.632C1181.22 146.714 1179.47 146.805 1177.74 146.912C1176.52 146.986 1175.09 146.807 1173.94 147.363C1173.26 147.69 1173.04 148.374 1173.26 148.922C1174.16 151.375 1175.75 153.442 1176.93 155.742C1177.59 157.008 1179.95 155.887 1179.28 154.605C1178.1 152.305 1176.51 150.237 1175.6 147.81C1175.36 148.338 1175.13 148.866 1174.91 149.369C1175.68 148.996 1177.87 149.204 1178.84 149.15C1180.47 149.056 1182.1 148.979 1183.72 148.91C1187.2 148.77 1190.7 148.703 1194.13 148.901C1201.48 149.308 1207.51 151.263 1213.36 154.77C1219.47 158.429 1224.02 163.081 1228.19 168.474C1231.82 173.154 1235.86 178.627 1236.29 184.78C1236.66 184.303 1237.02 183.85 1237.39 183.373C1224.92 185.606 1213.02 182.214 1203.21 176.719C1193.44 171.247 1185.13 163.579 1179.27 154.589C1178.5 153.419 1176.14 154.54 1176.93 155.742Z" fill="#DDDDDD"/>
<path d="M1176.41 150.587C1188.09 154.917 1199 160.533 1209.36 166.789C1213.82 169.484 1218.43 171.95 1222.99 174.517C1227.75 177.205 1232.55 180.13 1235.73 184.396C1236.59 185.545 1238.61 183.915 1237.75 182.765C1234.68 178.666 1230.12 175.722 1225.55 173.098C1220.69 170.299 1215.72 167.695 1210.93 164.802C1200.38 158.439 1189.29 152.792 1177.4 148.38C1175.94 147.843 1174.97 150.072 1176.41 150.587Z" fill="#DDDDDD"/>
<path d="M1230.08 181.305C1217.49 177.296 1204.52 173.429 1194.22 165.897C1193.03 165.026 1191.49 167.02 1192.67 167.891C1203.13 175.531 1216.31 179.47 1229.09 183.527C1230.57 183.999 1231.55 181.785 1230.08 181.305Z" fill="#DDDDDD"/>
<path d="M1220.11 164.259C1214.3 159.88 1207.43 157.086 1200.42 154.398C1198.99 153.842 1198.02 156.071 1199.45 156.611C1206.29 159.242 1212.93 161.989 1218.59 166.244C1219.75 167.15 1221.28 165.14 1220.11 164.259Z" fill="#DDDDDD"/>
<path d="M1193.53 161.276C1191.05 159.407 1188.84 157.245 1186.14 155.6C1185.61 155.264 1184.77 155.493 1184.35 156.03C1183.92 156.576 1184.06 157.284 1184.61 157.61C1187.31 159.256 1189.51 161.417 1192 163.286C1192.5 163.656 1193.4 163.359 1193.78 162.856C1194.22 162.269 1194.02 161.655 1193.53 161.276Z" fill="#DDDDDD"/>
<path d="M1173.3 127.387C1193.35 137.552 1223.67 141.795 1245.97 127.242C1246.61 126.834 1246.51 126.05 1246.2 125.605C1242.54 120.385 1235.67 117.329 1229.61 114.776C1222.91 111.957 1216.22 109.902 1208.56 109.272C1200.87 108.635 1193.75 109.408 1186.14 112.157C1182.23 113.574 1178.43 115.314 1174.67 117.134C1173 117.944 1171.31 118.78 1169.65 119.606C1168.47 120.195 1167.02 120.642 1166.17 121.626C1165.84 122.003 1165.79 122.719 1166.18 123.029C1168.32 124.783 1170.93 125.899 1173.3 127.387C1174.56 128.181 1176.11 126.187 1174.84 125.393C1172.66 124.011 1170.18 122.996 1168.18 121.408C1168.17 121.884 1168.18 122.335 1168.18 122.811C1168.72 122.195 1171.09 121.384 1172.01 120.938C1173.58 120.158 1175.15 119.377 1176.74 118.629C1180.14 117.007 1183.57 115.465 1187.1 114.189C1194.37 111.562 1201.27 110.997 1208.59 111.635C1215.89 112.282 1222.27 114.344 1228.65 117.062C1234.35 119.493 1240.73 122.367 1244.17 127.261C1244.25 126.707 1244.32 126.179 1244.4 125.625C1233.67 132.619 1220.65 134.64 1208.59 134.079C1196.57 133.516 1184.88 130.5 1174.85 125.409C1173.49 124.718 1171.95 126.712 1173.3 127.387Z" fill="#DDDDDD"/>
<path d="M1169.9 123.289C1183.56 122.067 1197.08 122.28 1210.43 123.305C1215.93 123.733 1221.48 123.84 1227 124.12C1232.55 124.407 1238.3 124.873 1243.16 126.998C1244.54 127.598 1246.09 125.62 1244.7 125.004C1235.16 120.827 1223.28 121.997 1212.61 121.141C1198.67 120.004 1184.52 119.698 1170.25 120.982C1168.62 121.133 1168.28 123.44 1169.9 123.289Z" fill="#DDDDDD"/>
<path d="M1236.43 126.849C1222.59 128.671 1208.42 130.796 1195 128.773C1193.45 128.534 1192.46 130.757 1194.03 130.986C1207.9 133.086 1222.43 130.969 1236.75 129.092C1238.38 128.875 1238.04 126.641 1236.43 126.849Z" fill="#DDDDDD"/>
<path d="M1218.74 116.728C1211.02 115.452 1203.14 115.899 1195.11 116.534C1193.48 116.669 1193.14 118.976 1194.77 118.841C1202.55 118.226 1210.26 117.721 1217.77 118.941C1219.33 119.195 1220.3 116.982 1218.74 116.728Z" fill="#DDDDDD"/>
<path d="M1192.02 125.177C1188.62 124.624 1185.35 123.712 1181.85 123.442C1181.21 123.399 1180.49 123.983 1180.41 124.578C1180.34 125.247 1180.81 125.692 1181.49 125.758C1182.35 125.816 1183 125.9 1183.78 126.019C1184.61 126.152 1185.42 126.311 1186.24 126.469C1187.84 126.787 1189.4 127.14 1191.02 127.408C1191.65 127.518 1192.43 127.259 1192.67 126.607C1192.93 126.045 1192.71 125.3 1192.02 125.177Z" fill="#DDDDDD"/>
</g>
</svg>
