<svg width="84" height="19" viewBox="0 0 84 19" fill="none" xmlns="http://www.w3.org/2000/svg">
<path d="M8.67806 3.09367C8.98566 2.18997 10.2638 2.18998 10.5714 3.09367L11.5549 5.98313C11.6929 6.3884 12.0735 6.66091 12.5016 6.66091H15.5818C16.5617 6.66091 16.9569 7.92416 16.1517 8.48263L13.7409 10.1546C13.3741 10.409 13.2203 10.8758 13.3642 11.2985L14.3036 14.0586C14.6145 14.9718 13.5798 15.7523 12.7871 15.2025L10.1946 13.4046C9.85187 13.1668 9.39758 13.1668 9.05483 13.4046L6.46235 15.2025C5.66969 15.7523 4.63496 14.9718 4.9458 14.0586L5.88528 11.2985C6.02915 10.8758 5.87539 10.409 5.50851 10.1546L3.09777 8.48263C2.29254 7.92416 2.68772 6.66091 3.66767 6.66091H6.74788C7.17598 6.66091 7.55659 6.3884 7.69454 5.98313L8.67806 3.09367Z" fill="#FFA858"/>
<path d="M24.8607 3.23964C25.16 2.31832 26.4635 2.31832 26.7628 3.23964L27.6499 5.96992C27.7838 6.38194 28.1677 6.66091 28.601 6.66091H31.4717C32.4404 6.66091 32.8432 7.90051 32.0595 8.46992L29.737 10.1574C29.3865 10.412 29.2398 10.8634 29.3737 11.2754L30.2608 14.0058C30.5602 14.9271 29.5057 15.6932 28.722 15.1238L26.3995 13.4364C26.049 13.1817 25.5744 13.1817 25.2239 13.4364L22.9015 15.1238C22.1178 15.6932 21.0633 14.9271 21.3627 14.0058L22.2498 11.2754C22.3837 10.8634 22.237 10.412 21.8865 10.1574L19.564 8.46991C18.7803 7.90051 19.1831 6.66091 20.1518 6.66091H23.0225C23.4558 6.66091 23.8397 6.38194 23.9736 5.96992L24.8607 3.23964Z" fill="#FFA858"/>
<path d="M41.0521 3.09367C41.3597 2.18997 42.6378 2.18998 42.9454 3.09367L43.9289 5.98313C44.0669 6.3884 44.4475 6.66091 44.8756 6.66091H47.9558C48.9357 6.66091 49.3309 7.92416 48.5257 8.48263L46.115 10.1546C45.7481 10.409 45.5943 10.8758 45.7382 11.2985L46.6777 14.0586C46.9885 14.9718 45.9538 15.7523 45.1611 15.2025L42.5686 13.4046C42.2259 13.1668 41.7716 13.1668 41.4289 13.4046L38.8364 15.2025C38.0437 15.7523 37.009 14.9718 37.3198 14.0586L38.2593 11.2985C38.4032 10.8758 38.2494 10.409 37.8825 10.1546L35.4718 8.48263C34.6666 7.92416 35.0617 6.66091 36.0417 6.66091H39.1219C39.55 6.66091 39.9306 6.3884 40.0686 5.98313L41.0521 3.09367Z" fill="#FFA858"/>
<path d="M57.2347 3.23964C57.5341 2.31832 58.8375 2.31832 59.1368 3.23964L60.0239 5.96992C60.1578 6.38194 60.5418 6.66091 60.975 6.66091H63.8457C64.8145 6.66091 65.2172 7.90051 64.4335 8.46992L62.111 10.1574C61.7605 10.412 61.6139 10.8634 61.7477 11.2754L62.6349 14.0058C62.9342 14.9271 61.8797 15.6932 61.096 15.1238L58.7736 13.4364C58.4231 13.1817 57.9485 13.1817 57.598 13.4364L55.2755 15.1238C54.4918 15.6932 53.4373 14.9271 53.7367 14.0058L54.6238 11.2754C54.7577 10.8634 54.611 10.412 54.2605 10.1574L51.938 8.46991C51.1543 7.90051 51.5571 6.66091 52.5258 6.66091H55.3966C55.8298 6.66091 56.2137 6.38194 56.3476 5.96992L57.2347 3.23964Z" fill="#FFA858"/>
<path d="M73.4261 3.09367C73.7337 2.18997 75.0118 2.18998 75.3194 3.09367L76.303 5.98313C76.4409 6.3884 76.8215 6.66091 77.2496 6.66091H80.3298C81.3098 6.66091 81.705 7.92416 80.8997 8.48263L78.489 10.1546C78.1221 10.409 77.9683 10.8758 78.1122 11.2985L79.0517 14.0586C79.3625 14.9718 78.3278 15.7523 77.5351 15.2025L74.9427 13.4046C74.5999 13.1668 74.1456 13.1668 73.8029 13.4046L71.2104 15.2025C70.4177 15.7523 69.383 14.9718 69.6938 14.0586L70.6333 11.2985C70.7772 10.8758 70.6234 10.409 70.2566 10.1546L67.8458 8.48263C67.0406 7.92416 67.4358 6.66091 68.4157 6.66091H71.4959C71.924 6.66091 72.3046 6.3884 72.4426 5.98313L73.4261 3.09367Z" fill="#FFA858"/>
</svg>
